HIERARCHY
ROOT Hips
{
	OFFSET 0.00000 0.00000 0.00000
	CHANNELS 6 Xposition Yposition Zposition Zrotation Yrotation Xrotation 
	JOINT LHipJoint
	{
		OFFSET 0 0 0
		CHANNELS 3 Zrotation Yrotation Xrotation
		JOINT LeftHip
		{
			OFFSET 1.84395 -1.68683 0.74144
			CHANNELS 3 Zrotation Yrotation Xrotation
			JOINT LeftKnee
			{
				OFFSET 2.27037 -6.23779 0.00000
				CHANNELS 3 Zrotation Yrotation Xrotation
				JOINT LeftAnkle
				{
					OFFSET 2.56918 -7.05877 0.00000
					CHANNELS 3 Zrotation Yrotation Xrotation
					JOINT LeftToe
					{
						OFFSET 0.22276 -0.61202 1.71784
						CHANNELS 3 Zrotation Yrotation Xrotation
						End Site
						{
							OFFSET 0.00000 -0.00000 0.91613
						}
					}
				}
			}
		}
	}
	JOINT RHipJoint
	{
		OFFSET 0 0 0
		CHANNELS 3 Zrotation Yrotation Xrotation
		JOINT RightHip
		{
			OFFSET -1.76833 -1.68684 0.74144
			CHANNELS 3 Zrotation Yrotation Xrotation
			JOINT RightKnee
			{
				OFFSET -2.49360 -6.85110 0.00000
				CHANNELS 3 Zrotation Yrotation Xrotation
				JOINT RightAnkle
				{
					OFFSET -2.55538 -7.02085 0.00000
					CHANNELS 3 Zrotation Yrotation Xrotation
					JOINT RightToe
					{
						OFFSET -0.21516 -0.59115 1.68050
						CHANNELS 3 Zrotation Yrotation Xrotation
						End Site
						{
							OFFSET -0.00000 -0.00000 0.89604
						}
					}
				}
			}
		}
	}
	JOINT lowerback
	{
		OFFSET 0 0 0
		CHANNELS 3 Zrotation Yrotation Xrotation
		JOINT Chest
		{
			OFFSET 0.06382 1.72312 -0.19613
			CHANNELS 3 Zrotation Yrotation Xrotation
			JOINT Chest2
			{
				OFFSET -0.00055 1.73507 0.23859
				CHANNELS 3 Zrotation Yrotation Xrotation
				JOINT lowerneck
				{
					OFFSET 0 0 0
					CHANNELS 3 Zrotation Yrotation Xrotation
					JOINT Neck
					{
						OFFSET 0.03638 1.65562 0.09633
						CHANNELS 3 Zrotation Yrotation Xrotation
						JOINT Head
						{
							OFFSET 0.06388 1.62807 -0.32386
							CHANNELS 3 Zrotation Yrotation Xrotation
							End Site
							{
								OFFSET 0.00995 1.67644 -0.12021
							}
						}
					}
				}
				JOINT LeftCollar
				{
					OFFSET 0 0 0
					CHANNELS 3 Zrotation Yrotation Xrotation
					JOINT LeftShoulder
					{
						OFFSET 3.09648 1.42991 0.28122
CHANNELS 3 Zrotation Xrotation Yrotation
						JOINT LeftElbow
						{
OFFSET 0 -5.118780 -0.000000
CHANNELS 3 Zrotation Xrotation Yrotation
							JOINT LeftWrist
							{
OFFSET 0 -3.599710 0.000000
CHANNELS 3 Zrotation Xrotation Yrotation
								JOINT lhand
								{
									OFFSET 0 0 0
CHANNELS 3 Zrotation Xrotation Yrotation
									JOINT LFingers
									{
OFFSET 0 -0.628770 0.000000
CHANNELS 3 Zrotation Xrotation Yrotation
										End Site
										{
OFFSET 0 -0.506930 0.000000
										}
									}
								}
								JOINT LThumb
								{
OFFSET 0 0.000000 0.000000
CHANNELS 3 Zrotation Xrotation Yrotation
									End Site
									{
OFFSET 0 -0.514670 0.514670
									}
								}
							}
						}
					}
				}
				JOINT RightCollar
				{
					OFFSET 0 0 0
					CHANNELS 3 Zrotation Yrotation Xrotation
					JOINT RightShoulder
					{
						OFFSET -3.33565 1.14597 0.05047
CHANNELS 3 Zrotation Xrotation Yrotation
						JOINT RightElbow
						{
OFFSET 0 -5.490200 0.000000
CHANNELS 3 Zrotation Xrotation Yrotation
							JOINT RightWrist
							{
OFFSET 0 -3.206590 -0.000000
CHANNELS 3 Zrotation Xrotation Yrotation
								JOINT rhand
								{
									OFFSET 0 0 0
CHANNELS 3 Zrotation Xrotation Yrotation
									JOINT RFingers
									{
OFFSET 0 -0.691880 0.000000
CHANNELS 3 Zrotation Xrotation Yrotation
										End Site
										{
OFFSET 0 -0.557810 0.000000
										}
									}
								}
								JOINT RThumb
								{
OFFSET 0 0.000000 0.000000
CHANNELS 3 Zrotation Xrotation Yrotation
									End Site
									{
OFFSET 0 -0.566330 0.566330
									}
								}
							}
						}
					}
				}
			}
		}
	}
}
MOTION
Frames: 10
Frame Time: 0.008333333333333333
0.779437 17.476131 9.277404 -8.465348 3.044181 7.286896 0.000000 0.000000 0.000000 -19.542914 -38.891822 23.560225 0.061437 -1.598805 -4.398291 -5.662764 40.589794 -34.265851 0.080240 1.827631 5.029592 0.000000 0.000000 0.000000 27.632301 22.250636 7.396281 -0.023580 -0.990631 2.722987 0.904014 -21.630986 -23.008173 -0.093002 -1.967075 5.414730 4.554210 2.502309 -2.934104 0.919615 3.561888 -10.028728 -1.723214 1.457214 -8.721833 -6.935658 -5.464816 -4.544805 15.449615 -10.330474 23.163992 5.529802 -4.085672 9.134544 0.000000 0.000000 0.000000 0.417907 -39.824219 -63.388461 162.061392 -28.078512 115.479724 26.168410 -30.817901 3.721216 0.000000 0.000000 0.000000 -7.125000 0.000000 0.000000 -0.346058 25.834963 -0.160678 0.000000 0.000000 0.000000 -0.367160 -8.933180 47.230681 -52.650948 -54.010278 -28.305440 -14.123211 46.659373 54.143355 0.000000 0.000000 0.000000 7.125000 0.000000 0.000000 70.693853 76.832965 -57.496066
0.780911 17.478585 9.267570 -8.605760 2.995952 7.509014 0.000000 0.000000 0.000000 -19.409259 -39.393349 23.647996 0.064668 -1.640626 -4.513390 -5.813159 41.020924 -34.739486 0.083696 1.865879 5.135097 0.000000 0.000000 0.000000 27.798245 22.809530 7.355375 -0.022932 -0.977993 2.688345 0.941075 -21.927919 -23.218159 -0.098581 -2.024918 5.574499 4.287709 2.223730 -3.524031 1.386729 3.156314 -9.614629 -1.034809 1.320663 -7.979361 -7.150508 -5.343696 -6.469826 15.530399 -10.010958 22.578465 5.567045 -3.880959 9.275306 0.000000 0.000000 0.000000 -0.182318 -40.903008 -63.574695 162.118915 -28.004697 115.506720 25.904279 -30.684122 4.251359 0.000000 0.000000 0.000000 -7.125000 0.000000 0.000000 -0.556810 25.255487 -0.266010 0.000000 0.000000 0.000000 0.230147 -8.994351 46.688701 -53.274963 -54.233082 -28.811248 -13.521935 47.768467 53.317831 0.000000 0.000000 0.000000 7.125000 0.000000 0.000000 67.460259 76.403235 -54.026484
0.785468 17.479515 9.265500 -8.654681 2.905175 7.667537 0.000000 0.000000 0.000000 -19.455297 -39.731520 23.787158 0.066070 -1.658677 -4.563309 -5.810331 41.207282 -35.399707 0.108820 2.125956 5.853889 0.000000 0.000000 0.000000 27.867193 23.203067 7.409440 -0.021272 -0.942276 2.589928 0.987233 -22.206103 -23.301387 -0.102554 -2.065183 5.685944 4.558282 2.233636 -3.089643 1.253936 3.209217 -9.958691 -1.350951 1.301721 -8.594019 -7.345057 -5.371210 -7.110089 16.159975 -10.055467 21.888610 5.787701 -3.856866 9.212767 0.000000 0.000000 0.000000 -0.850247 -40.657726 -65.005551 162.269290 -27.810933 115.577094 25.440204 -29.877463 3.856284 0.000000 0.000000 0.000000 -7.125000 0.000000 0.000000 -0.899432 25.710691 -0.420202 0.000000 0.000000 0.000000 -0.107265 -9.443408 48.094449 -51.611902 -53.625233 -27.466749 -14.620821 47.407195 53.942941 0.000000 0.000000 0.000000 7.125000 0.000000 0.000000 69.714393 76.982421 -56.741029
0.791317 17.478280 9.266838 -8.692906 2.738394 7.797219 0.000000 0.000000 0.000000 -19.725214 -40.154537 24.244122 0.070179 -1.709294 -4.703063 -5.782749 41.454095 -36.394070 0.150397 2.498234 6.884783 0.000000 0.000000 0.000000 27.896675 23.514451 7.451019 -0.020042 -0.913019 2.509467 0.986768 -22.259615 -23.416490 -0.119451 -2.228116 6.136487 4.867369 2.295872 -2.806733 1.095602 3.320877 -10.238820 -1.711453 1.309167 -9.046035 -7.405549 -5.615643 -7.654204 16.133349 -10.317155 21.466356 5.729005 -3.977963 9.211720 0.000000 0.000000 0.000000 -1.579483 -40.394942 -66.724126 162.141669 -27.975375 115.517420 25.603710 -29.590821 4.893728 0.000000 0.000000 0.000000 -7.125000 0.000000 0.000000 -0.797471 24.555897 -0.393386 0.000000 0.000000 0.000000 0.247739 -9.025411 48.061390 -51.235917 -53.481894 -27.164319 -14.677518 47.443266 53.954874 0.000000 0.000000 0.000000 7.125000 0.000000 0.000000 69.750800 77.006998 -56.801482
0.796558 17.478023 9.269990 -8.608717 2.591874 7.856043 0.000000 0.000000 0.000000 -20.003026 -40.313847 24.456818 0.070707 -1.715878 -4.721040 -5.721790 41.518155 -36.966715 0.176289 2.704243 7.456447 0.000000 0.000000 0.000000 27.778525 23.614686 7.524806 -0.017821 -0.861885 2.368804 0.994325 -22.278249 -23.375946 -0.119216 -2.225393 6.129059 5.026690 2.272395 -2.563120 0.977811 3.312424 -10.471879 -1.939703 1.271295 -9.440056 -7.380328 -5.767125 -7.807382 15.739715 -10.378345 21.015570 5.554279 -4.051663 9.069435 0.000000 0.000000 0.000000 -2.103570 -40.086303 -67.928502 162.001938 -28.154704 115.451713 26.050752 -29.690275 5.636817 0.000000 0.000000 0.000000 -7.125000 0.000000 0.000000 -0.484635 23.710363 -0.248785 0.000000 0.000000 0.000000 0.566144 -8.689244 48.168343 -50.666206 -53.260542 -26.707138 -14.704485 47.635212 53.864213 0.000000 0.000000 0.000000 7.125000 0.000000 0.000000 69.355482 76.997385 -56.422106
0.800486 17.477419 9.278848 -8.462336 2.381307 7.895026 0.000000 0.000000 0.000000 -20.287815 -40.272674 24.570941 0.070901 -1.717600 -4.725766 -5.721400 41.591967 -37.200522 0.187412 2.787407 7.687557 0.000000 0.000000 0.000000 27.614155 23.733098 7.648971 -0.015863 -0.813411 2.235549 1.022252 -22.358447 -23.248915 -0.109261 -2.131547 5.869383 5.025669 2.213098 -2.619933 0.960676 3.228706 -10.531207 -1.951955 1.226794 -9.478495 -7.279659 -5.836771 -8.157620 15.038979 -10.308816 20.928501 5.280860 -4.063327 9.050157 0.000000 0.000000 0.000000 -2.494922 -39.942502 -68.586868 161.927605 -28.249803 115.416521 26.363399 -29.355296 6.364009 0.000000 0.000000 0.000000 -7.125000 0.000000 0.000000 -0.279213 22.884075 -0.148547 0.000000 0.000000 0.000000 0.709811 -8.633729 48.380878 -50.017964 -53.002490 -26.188573 -14.968638 47.959038 53.628980 0.000000 0.000000 0.000000 7.125000 0.000000 0.000000 68.273117 77.045146 -55.466531
0.808196 17.476126 9.292987 -8.222020 2.174829 7.938873 0.000000 0.000000 0.000000 -20.998523 -40.520373 25.045380 0.069384 -1.699220 -4.675068 -5.676279 41.783361 -38.046248 0.220025 3.019414 8.332713 0.000000 0.000000 0.000000 27.333903 23.811657 7.793772 -0.013952 -0.762079 2.094361 1.009120 -22.297221 -23.260029 -0.116240 -2.197966 6.053065 5.020491 2.150422 -2.797377 0.892391 3.128068 -10.591767 -2.010270 1.173754 -9.445390 -7.355346 -5.893824 -8.238381 14.604522 -10.277683 20.935464 5.139809 -4.092448 9.041737 0.000000 0.000000 0.000000 -2.734198 -39.578998 -69.228764 161.900779 -28.284027 115.403799 26.642791 -28.443810 6.919716 0.000000 0.000000 0.000000 -7.125000 0.000000 0.000000 -0.097105 22.247338 -0.052925 0.000000 0.000000 0.000000 0.862098 -8.695858 48.649318 -49.217544 -52.674945 -25.550600 -14.984389 47.987670 53.673621 0.000000 0.000000 0.000000 7.125000 0.000000 0.000000 68.460380 77.061994 -55.658485
0.811711 17.474119 9.307550 -8.337233 1.932436 7.926862 0.000000 0.000000 0.000000 -20.996020 -40.376179 25.240798 0.071826 -1.729451 -4.758519 -5.674986 41.878639 -38.340827 0.224212 3.047649 8.411516 0.000000 0.000000 0.000000 27.502476 23.905547 7.937715 -0.013472 -0.748937 2.058220 0.997960 -22.214740 -23.207427 -0.120609 -2.238531 6.165314 5.349202 2.138089 -2.912642 0.895305 3.113473 -10.646835 -2.184349 1.137909 -9.429967 -7.193943 -5.881830 -8.325702 14.127413 -10.215814 21.235590 4.954732 -4.082071 9.117286 0.000000 0.000000 0.000000 -2.207374 -39.339163 -68.745519 162.067458 -28.070666 115.482517 26.932168 -28.713077 6.885631 0.000000 0.000000 0.000000 -7.125000 0.000000 0.000000 0.116130 22.266040 0.063493 0.000000 0.000000 0.000000 1.329881 -8.581234 48.299058 -48.772725 -52.488360 -25.197339 -15.189169 48.662162 53.359681 0.000000 0.000000 0.000000 7.125000 0.000000 0.000000 67.060516 77.061858 -54.364452
0.813848 17.471462 9.321533 -8.296785 1.694301 7.934384 0.000000 0.000000 0.000000 -21.127054 -40.215988 25.304859 0.070966 -1.718145 -4.727336 -5.673286 41.919151 -38.469785 0.219207 3.013270 8.315736 0.000000 0.000000 0.000000 27.454686 23.879770 7.994649 -0.012904 -0.732939 2.014197 0.973839 -22.030335 -23.081883 -0.112589 -2.163759 5.958366 5.393502 2.100455 -3.186367 0.928123 3.044496 -10.641861 -2.159464 1.106348 -9.268617 -7.134356 -5.865946 -8.406110 13.713622 -10.184001 21.830196 4.813879 -4.079607 9.307049 0.000000 0.000000 0.000000 -1.992361 -39.207396 -68.504329 162.101841 -28.026581 115.498729 26.813765 -28.662203 6.816789 0.000000 0.000000 0.000000 -7.125000 0.000000 0.000000 0.032625 22.350845 0.017757 0.000000 0.000000 0.000000 1.891966 -8.216508 47.355928 -48.803737 -52.498559 -25.222759 -14.397481 49.010714 52.712361 0.000000 0.000000 0.000000 7.125000 0.000000 0.000000 64.680337 76.565046 -51.660403
0.814847 17.468698 9.336575 -8.248761 1.475691 7.953883 0.000000 0.000000 0.000000 -21.358388 -40.205342 25.520835 0.070438 -1.711928 -4.710155 -5.517455 41.833869 -39.049305 0.262212 3.294469 9.099597 0.000000 0.000000 0.000000 27.409812 23.930081 8.068428 -0.012230 -0.714774 1.964248 0.967252 -21.943074 -22.971951 -0.106561 -2.103984 5.793220 5.096894 1.941499 -4.089357 1.219393 2.758144 -10.225898 -1.635272 1.035561 -8.316251 -7.143619 -5.736234 -8.675502 13.364088 -9.970841 22.359766 4.724533 -3.987339 9.497577 0.000000 0.000000 0.000000 -1.662812 -39.740910 -67.721192 162.125926 -27.995589 115.510009 26.645606 -28.345113 6.729682 0.000000 0.000000 0.000000 -7.125000 0.000000 0.000000 -0.086785 22.459125 -0.046996 0.000000 0.000000 0.000000 1.149555 -9.702838 48.841622 -47.431480 -51.905388 -24.137542 -15.043747 48.570537 53.233773 0.000000 0.000000 0.000000 7.125000 0.000000 0.000000 66.565925 76.973194 -53.812493
